<svg width="49" height="49" viewBox="0 0 49 49" fill="none" xmlns="http://www.w3.org/2000/svg">
<path d="M27.621 0.20054C14.1979 -1.51446 1.9219 7.9594 0.200565 21.3824C-1.51465 34.8038 7.96037 47.0783 21.385 48.7995C34.808 50.5145 47.0841 41.0406 48.7977 27.6176C50.5206 14.1962 41.0471 1.92167 27.621 0.20054ZM32.6625 15.4886C32.2077 15.4886 31.7758 15.6723 31.4572 15.9985L22.3651 25.0819L21.7357 24.4587L20.4263 23.1433C29.3837 14.2115 31.0039 14.1227 32.661 15.487L32.6625 15.4886ZM22.7403 25.408L31.8003 16.3415C31.9197 16.2171 32.0631 16.1182 32.2219 16.0509C32.3806 15.9836 32.5514 15.9493 32.7239 15.95C32.8963 15.9507 33.0668 15.9865 33.225 16.0551C33.3832 16.1237 33.5258 16.2237 33.6441 16.3491C33.7617 16.4746 33.8524 16.6227 33.9107 16.7844C33.969 16.9462 33.9936 17.1181 33.9832 17.2897C33.9727 17.4613 33.9273 17.6289 33.8498 17.7823C33.7723 17.9358 33.6643 18.0718 33.5323 18.182L23.9379 26.6039L22.7403 25.408ZM23.4111 26.829L21.1614 27.3144C21.1342 27.3182 21.1065 27.3132 21.0823 27.3003C21.0581 27.2874 21.0386 27.2671 21.0266 27.2425C21.0143 27.2189 21.0101 27.1919 21.0145 27.1656C21.0189 27.1394 21.0318 27.1153 21.0511 27.097L22.3666 25.7817L23.4111 26.829ZM17.6835 25.8888L20.0848 23.4955L21.8796 25.2901L17.8351 26.1583C17.8011 26.1673 17.765 26.1643 17.7329 26.1498C17.7008 26.1353 17.6747 26.1102 17.659 26.0787C17.6414 26.0488 17.6343 26.014 17.6387 25.9796C17.6432 25.9452 17.6589 25.9133 17.6835 25.8888ZM10.2422 38.2568C10.1549 38.2491 10.0891 38.1695 10.0967 38.0899C10.1032 38.0536 10.1202 38.02 10.1457 37.9934H10.1534L12.083 36.064L14.5808 38.5615L10.2422 38.2568ZM15.1934 35.6889C15.1016 35.7387 15.0286 35.8171 14.9855 35.9122C14.9424 36.0072 14.9315 36.1138 14.9545 36.2156L15.3695 37.9796C15.4353 38.2353 15.1229 38.4084 14.9391 38.2185H14.9315L12.4276 35.7134L20.1093 28.0403L23.8261 27.2364L25.6041 29.0233C23.0435 31.2712 19.5411 33.513 15.1949 35.6889H15.1934ZM25.9716 28.6956L24.2564 26.9806L33.8509 18.5587C33.9382 18.4791 34.0178 18.3918 34.0898 18.303C33.7958 21.047 29.9503 24.9226 25.9716 28.6956ZM33.4451 15.5039H33.4374C30.0943 12.1458 34.8172 6.98552 38.4544 10.0159L35.1695 13.3111C35.1465 13.334 35.1283 13.3612 35.1158 13.3912C35.1034 13.4211 35.097 13.4533 35.097 13.4857C35.097 13.5181 35.1034 13.5502 35.1158 13.5802C35.1283 13.6101 35.1465 13.6374 35.1695 13.6603L37.7132 16.2067C37.0178 16.5516 36.2317 16.6693 35.4658 16.5432C34.6999 16.4171 33.9931 16.0535 33.4451 15.5039V15.5039ZM38.701 15.5039C38.5343 15.6719 38.35 15.8213 38.1512 15.9495L35.6871 13.4857L38.8128 10.3512C39.4636 11.0581 39.8155 11.9895 39.7947 12.9501C39.7738 13.9107 39.3819 14.8259 38.701 15.5039V15.5039ZM38.5003 12.3541C38.4512 12.3892 38.4141 12.4387 38.3944 12.4958C38.3746 12.5528 38.3731 12.6146 38.3901 12.6726C38.4643 12.8189 38.494 12.9838 38.4755 13.1468C38.457 13.3098 38.3911 13.4639 38.2859 13.5898C38.2617 13.6193 38.2436 13.6533 38.2328 13.6899C38.2221 13.7265 38.2188 13.7649 38.2232 13.8028C38.2277 13.8407 38.2397 13.8773 38.2586 13.9105C38.2776 13.9436 38.303 13.9725 38.3334 13.9956C38.3822 14.0306 38.4403 14.0503 38.5003 14.0523C38.5876 14.0523 38.6703 14.0201 38.7163 13.9558C38.8921 13.7443 39.003 13.4865 39.0356 13.2135C39.0682 12.9404 39.0211 12.6638 38.9 12.4169C38.8782 12.3862 38.8504 12.3602 38.8183 12.3404C38.7863 12.3206 38.7506 12.3074 38.7134 12.3016C38.6762 12.2957 38.6381 12.2973 38.6016 12.3064C38.565 12.3154 38.5306 12.3316 38.5003 12.3541V12.3541Z" fill="#FF852D"/>
</svg>
