<svg width="127" height="127" viewBox="0 0 127 127" fill="none" xmlns="http://www.w3.org/2000/svg">
<mask id="mask0" mask-type="alpha" maskUnits="userSpaceOnUse" x="0" y="0" width="127" height="127">
<path d="M89.683 125.614C90.6798 126.006 91.746 126.187 92.8152 126.145C93.8843 126.104 94.9336 125.841 95.8977 125.374L121.69 112.865C123.019 112.22 124.14 111.211 124.924 109.953C125.708 108.694 126.124 107.239 126.124 105.753V20.9354C126.124 19.4495 125.708 17.9938 124.924 16.7357C124.14 15.4775 123.019 14.4681 121.69 13.8236L95.8982 1.31459C94.4408 0.607769 92.8014 0.375042 91.2069 0.648625C89.6125 0.922209 88.1419 1.68857 86.9986 2.84164L37.6213 48.2444L16.113 31.7896C15.1428 31.0473 13.9454 30.6708 12.7286 30.7254C11.5117 30.7799 10.3522 31.2621 9.45125 32.0882L2.55316 38.4127C0.278521 40.4978 0.276064 44.1045 2.54726 46.193L21.1998 63.3441L2.54726 80.4946C0.276064 82.5836 0.278521 86.1898 2.55316 88.2754L9.45125 94.5994C10.3522 95.4256 11.5117 95.9079 12.7285 95.9625C13.9454 96.0171 15.1428 95.6407 16.113 94.8985L37.6213 78.4432L86.9986 123.846C87.762 124.617 88.6762 125.219 89.683 125.614ZM94.8238 34.6803L57.3576 63.3441L94.8238 92.0073V34.6803Z" fill="white"/>
</mask>
<g mask="url(#mask0)">
<path d="M121.767 13.8425L95.9541 1.31619C94.4963 0.60879 92.8564 0.375567 91.2613 0.648791C89.6661 0.922014 88.1947 1.68817 87.0506 2.84125L2.54818 80.4942C0.275512 82.5832 0.27846 86.1894 2.55408 88.275L9.45659 94.599C10.3583 95.4254 11.5185 95.9077 12.7361 95.9623C13.9536 96.0169 15.1518 95.6404 16.1228 94.8981L117.883 17.0922C121.297 14.4822 126.2 16.9362 126.2 21.2549V20.9529C126.2 19.4673 125.784 18.0118 125 16.754C124.216 15.4961 123.095 14.487 121.767 13.8425Z" fill="#0065A9"/>
<path d="M121.767 112.844L95.9542 125.371C94.4963 126.078 92.8564 126.311 91.2614 126.038C89.6663 125.765 88.1949 124.999 87.0507 123.846L2.54824 46.1928C0.275573 44.1043 0.278521 40.4976 2.55414 38.4125L9.45665 32.088C10.3584 31.2617 11.5187 30.7795 12.7362 30.7249C13.9538 30.6704 15.1519 31.047 16.1229 31.7894L117.883 109.595C121.297 112.205 126.2 109.751 126.2 105.432V105.734C126.2 107.22 125.784 108.675 125 109.933C124.216 111.191 123.095 112.2 121.767 112.844Z" fill="#007ACC"/>
<path d="M95.8731 125.381C94.4149 126.088 92.7748 126.32 91.1796 126.047C89.5844 125.773 88.1129 125.007 86.9686 123.854C89.8579 126.766 94.7987 124.703 94.7987 120.585V6.11825C94.7987 1.99959 89.8579 -0.0627135 86.9686 2.84926C88.1129 1.6961 89.5843 0.929743 91.1795 0.656178C92.7747 0.382614 94.4149 0.615357 95.8731 1.32222L121.682 13.8312C123.01 14.4753 124.132 15.4845 124.917 16.7427C125.702 18.0009 126.118 19.4569 126.118 20.943V105.761C126.118 108.794 124.393 111.559 121.682 112.873L95.8731 125.381V125.381Z" fill="#1F9CF0"/>
<path d="M89.683 125.614C90.6798 126.006 91.746 126.186 92.8152 126.145C93.8843 126.104 94.9336 125.841 95.8977 125.373L121.69 112.864C123.018 112.22 124.139 111.211 124.924 109.952C125.708 108.694 126.124 107.238 126.124 105.753V20.9353C126.124 19.4494 125.708 17.9936 124.924 16.7355C124.14 15.4774 123.019 14.468 121.69 13.8234L95.8972 1.31395C94.4398 0.607234 92.8006 0.374568 91.2062 0.648149C89.6119 0.92173 88.1413 1.68803 86.9981 2.84099L37.6213 48.2443L16.113 31.7894C15.1428 31.0472 13.9454 30.6707 12.7286 30.7252C11.5117 30.7797 10.3522 31.2619 9.45125 32.088L2.55316 38.4126C0.278521 40.4977 0.276064 44.1043 2.54726 46.1929L21.1998 63.3439L2.54726 80.4944C0.276064 82.5834 0.278521 86.1896 2.55316 88.2752L9.45125 94.5993C10.3522 95.4255 11.5117 95.9077 12.7285 95.9623C13.9454 96.017 15.1428 95.6405 16.113 94.8983L37.6213 78.443L86.9981 123.846C87.7617 124.616 88.676 125.219 89.683 125.614ZM94.8238 34.6796L57.3576 63.3439L94.8238 92.0071V34.6801V34.6796Z" fill="url(#paint0_linear)" fill-opacity="0.25"/>
</g>
<defs>
<linearGradient id="paint0_linear" x1="63.4849" y1="0.536621" x2="63.4849" y2="126.151" gradientUnits="userSpaceOnUse">
<stop stop-color="white"/>
<stop offset="1" stop-color="white" stop-opacity="0"/>
</linearGradient>
</defs>
</svg>
